<?xml version="1.0" standalone="no"?>
<!DOCTYPE svg PUBLIC "-//W3C//DTD SVG 20010904//EN"
 "http://www.w3.org/TR/2001/REC-SVG-20010904/DTD/svg10.dtd">
<svg version="1.0" xmlns="http://www.w3.org/2000/svg"
 width="405.000000pt" height="405.000000pt" viewBox="0 0 405.000000 405.000000"
 preserveAspectRatio="xMidYMid meet">
<metadata>
Created by potrace 1.11, written by Peter Selinger 2001-2013
</metadata>
<g transform="translate(0.000000,405.000000) scale(0.100000,-0.100000)"
fill="#000000" stroke="none">
<path d="M1786 4040 c-71 -9 -249 -45 -301 -60 -87 -27 -165 -54 -205 -72 -25
-11 -54 -23 -65 -28 -46 -18 -120 -56 -123 -62 -2 -5 -12 -8 -23 -8 -10 0 -19
-4 -19 -8 0 -5 -16 -14 -35 -22 -19 -8 -35 -17 -35 -22 0 -4 -7 -8 -15 -8 -8
0 -15 -4 -15 -10 0 -5 -6 -10 -13 -10 -7 0 -22 -8 -33 -18 -10 -10 -35 -28
-54 -42 -19 -13 -37 -27 -40 -30 -3 -3 -20 -17 -39 -30 -83 -58 -244 -218
-331 -330 -19 -25 -40 -51 -47 -58 -6 -6 -15 -21 -18 -32 -3 -11 -10 -20 -14
-20 -4 0 -13 -11 -19 -25 -7 -14 -17 -31 -23 -38 -24 -27 -111 -192 -154 -292
-9 -22 -21 -49 -26 -60 -42 -99 -95 -310 -119 -475 -16 -109 -13 -406 4 -530
20 -133 66 -319 101 -405 7 -16 16 -41 20 -55 26 -91 212 -418 282 -495 10
-11 31 -38 47 -59 38 -50 164 -176 241 -241 33 -27 66 -55 73 -62 7 -7 26 -20
42 -30 17 -9 30 -21 30 -25 0 -4 7 -8 15 -8 8 0 15 -4 15 -10 0 -5 7 -10 15
-10 8 0 15 -4 15 -10 0 -5 7 -10 15 -10 8 0 15 -4 15 -8 0 -5 16 -14 35 -22
19 -8 35 -17 35 -20 0 -3 16 -12 35 -20 19 -8 35 -17 35 -22 0 -4 9 -8 20 -8
11 0 20 -4 20 -10 0 -5 9 -10 20 -10 11 0 20 -4 20 -10 0 -5 9 -10 19 -10 11
0 23 -4 26 -10 3 -5 15 -10 26 -10 10 0 19 -4 19 -10 0 -5 9 -10 20 -10 11 0
30 -5 43 -12 48 -24 57 -28 76 -28 11 0 23 -5 26 -10 3 -6 19 -10 35 -10 16 0
31 -4 34 -9 6 -9 30 -14 111 -26 22 -4 49 -10 60 -15 38 -16 141 -23 360 -23
207 0 292 7 410 33 28 6 67 14 88 17 20 3 40 9 43 14 3 5 18 9 34 9 16 0 32 5
35 10 3 6 15 10 26 10 10 0 27 4 37 9 19 9 65 29 97 41 44 16 240 115 243 122
2 5 8 8 13 8 9 0 188 116 199 129 3 3 25 22 50 41 25 19 68 55 95 81 28 26 59
56 70 66 11 10 50 52 85 93 36 41 67 77 70 80 3 3 25 34 49 70 25 36 47 67 51
70 15 14 79 128 130 235 56 115 121 292 141 382 5 24 14 64 19 91 55 252 50
640 -10 857 -5 17 -14 50 -21 75 -18 70 -49 163 -59 182 -6 10 -10 23 -10 30
0 40 -225 437 -270 478 -3 3 -21 25 -40 50 -40 53 -251 264 -299 300 -19 14
-39 30 -45 35 -6 6 -33 26 -61 45 -27 18 -52 36 -55 39 -3 3 -15 12 -27 19
-13 6 -33 18 -45 25 -13 6 -25 15 -28 18 -7 8 -249 124 -290 139 -19 6 -44 16
-55 21 -38 17 -240 69 -330 85 -104 19 -471 28 -579 14z m1120 -1022 c33 -18
43 -35 97 -168 88 -218 211 -506 221 -519 6 -8 55 -47 108 -87 107 -82 135
-113 173 -196 l26 -56 -3 -341 -3 -341 -28 -27 c-27 -27 -30 -28 -170 -33
l-142 -5 -5 -108 c-4 -93 -8 -111 -24 -123 -15 -11 -57 -14 -176 -14 -206 0
-200 -4 -200 141 l0 109 -222 0 -223 0 -28 -35 -28 -35 -289 0 -289 0 -29 35
-29 35 -214 -2 -214 -3 -5 -108 c-4 -93 -8 -111 -24 -123 -15 -11 -57 -14
-178 -14 -203 0 -198 -3 -198 145 l0 105 -94 0 c-51 0 -107 5 -124 11 -62 21
-62 23 -62 401 l0 343 31 60 c38 75 61 100 180 190 l95 73 118 283 c160 384
161 386 188 400 43 24 139 27 938 25 721 -2 798 -3 826 -18z"/>
<path d="M1222 2941 c-33 -6 -34 -9 -138 -256 -57 -137 -104 -253 -104 -257 0
-10 2087 -10 2093 0 5 9 -195 488 -211 504 -10 10 -186 13 -810 14 -438 1
-812 -1 -830 -5z"/>
<path d="M645 1990 c-10 -16 20 -57 63 -85 51 -34 171 -63 278 -67 l89 -3 0
80 0 80 -212 3 c-141 2 -214 -1 -218 -8z"/>
<path d="M1180 1915 l0 -85 830 0 830 0 0 85 0 85 -830 0 -830 0 0 -85z"/>
<path d="M2957 1993 c-2 -5 -4 -42 -3 -83 l1 -75 90 3 c102 3 230 34 277 66
40 27 72 71 64 85 -8 13 -422 16 -429 4z"/>
<path d="M1696 1458 c-12 -16 -16 -47 -16 -114 0 -77 3 -95 21 -118 l20 -26
265 0 265 0 24 25 c23 22 25 32 25 117 0 148 23 138 -310 138 -277 0 -279 0
-294 -22z m102 -62 c41 -41 2 -116 -59 -116 l-29 0 0 71 0 72 37 -6 c20 -4 43
-13 51 -21z m106 8 c19 -19 20 -25 4 -59 -9 -19 -9 -28 0 -37 16 -16 15 -28
-1 -28 -8 0 -20 12 -27 28 l-14 27 -4 -27 c-2 -16 -10 -28 -18 -28 -11 0 -14
16 -14 70 l0 70 29 0 c16 0 37 -7 45 -16z m75 -11 l13 -28 14 28 c8 15 21 27
29 27 12 0 11 -6 -5 -32 -11 -18 -20 -50 -20 -70 0 -27 -4 -38 -15 -38 -10 0
-15 10 -15 30 0 17 -9 49 -20 70 -16 31 -17 40 -7 40 8 0 19 -12 26 -27z m117
-8 c8 -19 17 -35 20 -35 3 0 12 16 20 35 8 19 19 35 25 35 12 0 6 -21 -24 -88
l-20 -47 -28 60 c-32 68 -33 75 -18 75 5 0 17 -16 25 -35z m174 20 c0 -9 -9
-15 -25 -15 -16 0 -25 -6 -25 -15 0 -8 9 -15 20 -15 11 0 20 -7 20 -15 0 -8
-9 -15 -20 -15 -11 0 -20 -4 -20 -10 0 -5 11 -10 25 -10 16 0 25 -6 25 -15 0
-11 -11 -15 -40 -15 l-40 0 0 70 0 70 40 0 c29 0 40 -4 40 -15z"/>
<path d="M1740 1349 c0 -36 2 -40 23 -37 39 5 31 78 -9 78 -10 0 -14 -13 -14
-41z"/>
<path d="M1860 1369 c0 -24 23 -21 28 4 2 10 -3 17 -12 17 -10 0 -16 -9 -16
-21z"/>
</g>
</svg>
